<?xml version="1.0" encoding="UTF-8" standalone="no"?>
<!DOCTYPE svg PUBLIC "-//W3C//DTD SVG 1.1//EN"
 "http://www.w3.org/Graphics/SVG/1.1/DTD/svg11.dtd">
<!-- Generated by graphviz version 13.1.2 (0)
 -->
<!-- Title: Tree Pages: 1 -->
<svg width="712pt" height="503pt"
 viewBox="0.00 0.00 712.00 503.00" xmlns="http://www.w3.org/2000/svg" xmlns:xlink="http://www.w3.org/1999/xlink">
<g id="graph0" class="graph" transform="scale(1 1) rotate(0) translate(4 499)">
<title>Tree</title>
<polygon fill="white" stroke="none" points="-4,4 -4,-499 708,-499 708,4 -4,4"/>
<!-- 0 -->
<g id="node1" class="node">
<title>0</title>
<polygon fill="#ffffff" stroke="black" points="124,-320.5 0,-320.5 0,-252.5 124,-252.5 124,-320.5"/>
<text xml:space="preserve" text-anchor="middle" x="62" y="-303.2" font-family="Helvetica,sans-Serif" font-size="14.00">x2 &lt;= 0.144</text>
<text xml:space="preserve" text-anchor="middle" x="62" y="-288.2" font-family="Helvetica,sans-Serif" font-size="14.00">gini = 0.5</text>
<text xml:space="preserve" text-anchor="middle" x="62" y="-273.2" font-family="Helvetica,sans-Serif" font-size="14.00">samples = 200</text>
<text xml:space="preserve" text-anchor="middle" x="62" y="-258.2" font-family="Helvetica,sans-Serif" font-size="14.00">value = [100, 100]</text>
</g>
<!-- 1 -->
<g id="node2" class="node">
<title>1</title>
<polygon fill="#e78c49" stroke="black" points="265.25,-423.5 163.75,-423.5 163.75,-355.5 265.25,-355.5 265.25,-423.5"/>
<text xml:space="preserve" text-anchor="middle" x="214.5" y="-406.2" font-family="Helvetica,sans-Serif" font-size="14.00">x2 &lt;= &#45;0.344</text>
<text xml:space="preserve" text-anchor="middle" x="214.5" y="-391.2" font-family="Helvetica,sans-Serif" font-size="14.00">gini = 0.142</text>
<text xml:space="preserve" text-anchor="middle" x="214.5" y="-376.2" font-family="Helvetica,sans-Serif" font-size="14.00">samples = 52</text>
<text xml:space="preserve" text-anchor="middle" x="214.5" y="-361.2" font-family="Helvetica,sans-Serif" font-size="14.00">value = [48, 4]</text>
</g>
<!-- 0&#45;&gt;1 -->
<g id="edge1" class="edge">
<title>0&#45;&gt;1</title>
<path fill="none" stroke="black" d="M113.11,-320.8C126.25,-329.78 140.53,-339.56 154.09,-348.84"/>
<polygon fill="black" stroke="black" points="151.87,-351.56 162.1,-354.32 155.82,-345.79 151.87,-351.56"/>
<text xml:space="preserve" text-anchor="middle" x="138.78" y="-353.98" font-family="Helvetica,sans-Serif" font-size="14.00">True</text>
</g>
<!-- 8 -->
<g id="node9" class="node">
<title>8</title>
<polygon fill="#a4d2f3" stroke="black" points="269,-257.5 160,-257.5 160,-189.5 269,-189.5 269,-257.5"/>
<text xml:space="preserve" text-anchor="middle" x="214.5" y="-240.2" font-family="Helvetica,sans-Serif" font-size="14.00">x1 &lt;= 2.246</text>
<text xml:space="preserve" text-anchor="middle" x="214.5" y="-225.2" font-family="Helvetica,sans-Serif" font-size="14.00">gini = 0.456</text>
<text xml:space="preserve" text-anchor="middle" x="214.5" y="-210.2" font-family="Helvetica,sans-Serif" font-size="14.00">samples = 148</text>
<text xml:space="preserve" text-anchor="middle" x="214.5" y="-195.2" font-family="Helvetica,sans-Serif" font-size="14.00">value = [52, 96]</text>
</g>
<!-- 0&#45;&gt;8 -->
<g id="edge8" class="edge">
<title>0&#45;&gt;8</title>
<path fill="none" stroke="black" d="M124.21,-260.88C132.45,-257.43 140.93,-253.88 149.22,-250.41"/>
<polygon fill="black" stroke="black" points="150.32,-253.74 158.19,-246.65 147.62,-247.28 150.32,-253.74"/>
<text xml:space="preserve" text-anchor="middle" x="136.46" y="-230.79" font-family="Helvetica,sans-Serif" font-size="14.00">False</text>
</g>
<!-- 2 -->
<g id="node3" class="node">
<title>2</title>
<polygon fill="#e58139" stroke="black" points="410.25,-495 308.75,-495 308.75,-442 410.25,-442 410.25,-495"/>
<text xml:space="preserve" text-anchor="middle" x="359.5" y="-477.7" font-family="Helvetica,sans-Serif" font-size="14.00">gini = 0.0</text>
<text xml:space="preserve" text-anchor="middle" x="359.5" y="-462.7" font-family="Helvetica,sans-Serif" font-size="14.00">samples = 31</text>
<text xml:space="preserve" text-anchor="middle" x="359.5" y="-447.7" font-family="Helvetica,sans-Serif" font-size="14.00">value = [31, 0]</text>
</g>
<!-- 1&#45;&gt;2 -->
<g id="edge2" class="edge">
<title>1&#45;&gt;2</title>
<path fill="none" stroke="black" d="M265.51,-417.13C276.6,-423.26 288.45,-429.8 299.85,-436.1"/>
<polygon fill="black" stroke="black" points="297.95,-439.05 308.39,-440.82 301.33,-432.92 297.95,-439.05"/>
</g>
<!-- 3 -->
<g id="node4" class="node">
<title>3</title>
<polygon fill="#eb9f68" stroke="black" points="410.25,-423.5 308.75,-423.5 308.75,-355.5 410.25,-355.5 410.25,-423.5"/>
<text xml:space="preserve" text-anchor="middle" x="359.5" y="-406.2" font-family="Helvetica,sans-Serif" font-size="14.00">x2 &lt;= &#45;0.137</text>
<text xml:space="preserve" text-anchor="middle" x="359.5" y="-391.2" font-family="Helvetica,sans-Serif" font-size="14.00">gini = 0.308</text>
<text xml:space="preserve" text-anchor="middle" x="359.5" y="-376.2" font-family="Helvetica,sans-Serif" font-size="14.00">samples = 21</text>
<text xml:space="preserve" text-anchor="middle" x="359.5" y="-361.2" font-family="Helvetica,sans-Serif" font-size="14.00">value = [17, 4]</text>
</g>
<!-- 1&#45;&gt;3 -->
<g id="edge3" class="edge">
<title>1&#45;&gt;3</title>
<path fill="none" stroke="black" d="M265.51,-389.5C275.69,-389.5 286.5,-389.5 297.02,-389.5"/>
<polygon fill="black" stroke="black" points="296.76,-393 306.76,-389.5 296.76,-386 296.76,-393"/>
</g>
<!-- 4 -->
<g id="node5" class="node">
<title>4</title>
<polygon fill="#f8e0ce" stroke="black" points="551.5,-495 457.5,-495 457.5,-442 551.5,-442 551.5,-495"/>
<text xml:space="preserve" text-anchor="middle" x="504.5" y="-477.7" font-family="Helvetica,sans-Serif" font-size="14.00">gini = 0.49</text>
<text xml:space="preserve" text-anchor="middle" x="504.5" y="-462.7" font-family="Helvetica,sans-Serif" font-size="14.00">samples = 7</text>
<text xml:space="preserve" text-anchor="middle" x="504.5" y="-447.7" font-family="Helvetica,sans-Serif" font-size="14.00">value = [4, 3]</text>
</g>
<!-- 3&#45;&gt;4 -->
<g id="edge4" class="edge">
<title>3&#45;&gt;4</title>
<path fill="none" stroke="black" d="M410.51,-417.13C422.34,-423.67 435.04,-430.68 447.13,-437.36"/>
<polygon fill="black" stroke="black" points="445.34,-440.37 455.78,-442.14 448.72,-434.24 445.34,-440.37"/>
</g>
<!-- 5 -->
<g id="node6" class="node">
<title>5</title>
<polygon fill="#e78b48" stroke="black" points="555.25,-423.5 453.75,-423.5 453.75,-355.5 555.25,-355.5 555.25,-423.5"/>
<text xml:space="preserve" text-anchor="middle" x="504.5" y="-406.2" font-family="Helvetica,sans-Serif" font-size="14.00">x1 &lt;= 0.993</text>
<text xml:space="preserve" text-anchor="middle" x="504.5" y="-391.2" font-family="Helvetica,sans-Serif" font-size="14.00">gini = 0.133</text>
<text xml:space="preserve" text-anchor="middle" x="504.5" y="-376.2" font-family="Helvetica,sans-Serif" font-size="14.00">samples = 14</text>
<text xml:space="preserve" text-anchor="middle" x="504.5" y="-361.2" font-family="Helvetica,sans-Serif" font-size="14.00">value = [13, 1]</text>
</g>
<!-- 3&#45;&gt;5 -->
<g id="edge5" class="edge">
<title>3&#45;&gt;5</title>
<path fill="none" stroke="black" d="M410.51,-389.5C420.69,-389.5 431.5,-389.5 442.02,-389.5"/>
<polygon fill="black" stroke="black" points="441.76,-393 451.76,-389.5 441.76,-386 441.76,-393"/>
</g>
<!-- 6 -->
<g id="node7" class="node">
<title>6</title>
<polygon fill="#e58139" stroke="black" points="696.5,-487 602.5,-487 602.5,-434 696.5,-434 696.5,-487"/>
<text xml:space="preserve" text-anchor="middle" x="649.5" y="-469.7" font-family="Helvetica,sans-Serif" font-size="14.00">gini = 0.0</text>
<text xml:space="preserve" text-anchor="middle" x="649.5" y="-454.7" font-family="Helvetica,sans-Serif" font-size="14.00">samples = 7</text>
<text xml:space="preserve" text-anchor="middle" x="649.5" y="-439.7" font-family="Helvetica,sans-Serif" font-size="14.00">value = [7, 0]</text>
</g>
<!-- 5&#45;&gt;6 -->
<g id="edge6" class="edge">
<title>5&#45;&gt;6</title>
<path fill="none" stroke="black" d="M555.51,-414.33C567.34,-420.21 580.04,-426.51 592.13,-432.51"/>
<polygon fill="black" stroke="black" points="590.24,-435.48 600.75,-436.79 593.35,-429.21 590.24,-435.48"/>
</g>
<!-- 7 -->
<g id="node8" class="node">
<title>7</title>
<polygon fill="#e9965a" stroke="black" points="696.5,-416 602.5,-416 602.5,-363 696.5,-363 696.5,-416"/>
<text xml:space="preserve" text-anchor="middle" x="649.5" y="-398.7" font-family="Helvetica,sans-Serif" font-size="14.00">gini = 0.245</text>
<text xml:space="preserve" text-anchor="middle" x="649.5" y="-383.7" font-family="Helvetica,sans-Serif" font-size="14.00">samples = 7</text>
<text xml:space="preserve" text-anchor="middle" x="649.5" y="-368.7" font-family="Helvetica,sans-Serif" font-size="14.00">value = [6, 1]</text>
</g>
<!-- 5&#45;&gt;7 -->
<g id="edge7" class="edge">
<title>5&#45;&gt;7</title>
<path fill="none" stroke="black" d="M555.51,-389.5C566.87,-389.5 579.02,-389.5 590.67,-389.5"/>
<polygon fill="black" stroke="black" points="590.6,-393 600.6,-389.5 590.6,-386 590.6,-393"/>
</g>
<!-- 9 -->
<g id="node10" class="node">
<title>9</title>
<polygon fill="#8ac5f0" stroke="black" points="414,-257.5 305,-257.5 305,-189.5 414,-189.5 414,-257.5"/>
<text xml:space="preserve" text-anchor="middle" x="359.5" y="-240.2" font-family="Helvetica,sans-Serif" font-size="14.00">x2 &lt;= 0.976</text>
<text xml:space="preserve" text-anchor="middle" x="359.5" y="-225.2" font-family="Helvetica,sans-Serif" font-size="14.00">gini = 0.411</text>
<text xml:space="preserve" text-anchor="middle" x="359.5" y="-210.2" font-family="Helvetica,sans-Serif" font-size="14.00">samples = 128</text>
<text xml:space="preserve" text-anchor="middle" x="359.5" y="-195.2" font-family="Helvetica,sans-Serif" font-size="14.00">value = [37, 91]</text>
</g>
<!-- 8&#45;&gt;9 -->
<g id="edge9" class="edge">
<title>8&#45;&gt;9</title>
<path fill="none" stroke="black" d="M269.15,-223.5C277.02,-223.5 285.19,-223.5 293.26,-223.5"/>
<polygon fill="black" stroke="black" points="293.03,-227 303.03,-223.5 293.03,-220 293.03,-227"/>
</g>
<!-- 16 -->
<g id="node17" class="node">
<title>16</title>
<polygon fill="#eeab7b" stroke="black" points="410.25,-131.5 308.75,-131.5 308.75,-63.5 410.25,-63.5 410.25,-131.5"/>
<text xml:space="preserve" text-anchor="middle" x="359.5" y="-114.2" font-family="Helvetica,sans-Serif" font-size="14.00">x1 &lt;= 3.078</text>
<text xml:space="preserve" text-anchor="middle" x="359.5" y="-99.2" font-family="Helvetica,sans-Serif" font-size="14.00">gini = 0.375</text>
<text xml:space="preserve" text-anchor="middle" x="359.5" y="-84.2" font-family="Helvetica,sans-Serif" font-size="14.00">samples = 20</text>
<text xml:space="preserve" text-anchor="middle" x="359.5" y="-69.2" font-family="Helvetica,sans-Serif" font-size="14.00">value = [15, 5]</text>
</g>
<!-- 8&#45;&gt;16 -->
<g id="edge16" class="edge">
<title>8&#45;&gt;16</title>
<path fill="none" stroke="black" d="M254.58,-189.07C272.07,-173.65 292.86,-155.34 311.22,-139.16"/>
<polygon fill="black" stroke="black" points="313.15,-142.13 318.34,-132.89 308.52,-136.87 313.15,-142.13"/>
</g>
<!-- 10 -->
<g id="node11" class="node">
<title>10</title>
<polygon fill="#e2f0fb" stroke="black" points="559,-296.5 450,-296.5 450,-228.5 559,-228.5 559,-296.5"/>
<text xml:space="preserve" text-anchor="middle" x="504.5" y="-279.2" font-family="Helvetica,sans-Serif" font-size="14.00">x1 &lt;= 1.017</text>
<text xml:space="preserve" text-anchor="middle" x="504.5" y="-264.2" font-family="Helvetica,sans-Serif" font-size="14.00">gini = 0.497</text>
<text xml:space="preserve" text-anchor="middle" x="504.5" y="-249.2" font-family="Helvetica,sans-Serif" font-size="14.00">samples = 50</text>
<text xml:space="preserve" text-anchor="middle" x="504.5" y="-234.2" font-family="Helvetica,sans-Serif" font-size="14.00">value = [23, 27]</text>
</g>
<!-- 9&#45;&gt;10 -->
<g id="edge10" class="edge">
<title>9&#45;&gt;10</title>
<path fill="none" stroke="black" d="M414.15,-238.13C422.11,-240.3 430.38,-242.56 438.53,-244.78"/>
<polygon fill="black" stroke="black" points="437.52,-248.13 448.08,-247.39 439.36,-241.38 437.52,-248.13"/>
</g>
<!-- 13 -->
<g id="node14" class="node">
<title>13</title>
<polygon fill="#64b2eb" stroke="black" points="559,-210.5 450,-210.5 450,-142.5 559,-142.5 559,-210.5"/>
<text xml:space="preserve" text-anchor="middle" x="504.5" y="-193.2" font-family="Helvetica,sans-Serif" font-size="14.00">x1 &lt;= &#45;0.967</text>
<text xml:space="preserve" text-anchor="middle" x="504.5" y="-178.2" font-family="Helvetica,sans-Serif" font-size="14.00">gini = 0.295</text>
<text xml:space="preserve" text-anchor="middle" x="504.5" y="-163.2" font-family="Helvetica,sans-Serif" font-size="14.00">samples = 78</text>
<text xml:space="preserve" text-anchor="middle" x="504.5" y="-148.2" font-family="Helvetica,sans-Serif" font-size="14.00">value = [14, 64]</text>
</g>
<!-- 9&#45;&gt;13 -->
<g id="edge13" class="edge">
<title>9&#45;&gt;13</title>
<path fill="none" stroke="black" d="M414.15,-205.87C422.2,-203.22 430.57,-200.47 438.81,-197.76"/>
<polygon fill="black" stroke="black" points="439.7,-201.15 448.11,-194.71 437.51,-194.5 439.7,-201.15"/>
</g>
<!-- 11 -->
<g id="node12" class="node">
<title>11</title>
<polygon fill="#eda978" stroke="black" points="700.25,-345 598.75,-345 598.75,-292 700.25,-292 700.25,-345"/>
<text xml:space="preserve" text-anchor="middle" x="649.5" y="-327.7" font-family="Helvetica,sans-Serif" font-size="14.00">gini = 0.366</text>
<text xml:space="preserve" text-anchor="middle" x="649.5" y="-312.7" font-family="Helvetica,sans-Serif" font-size="14.00">samples = 29</text>
<text xml:space="preserve" text-anchor="middle" x="649.5" y="-297.7" font-family="Helvetica,sans-Serif" font-size="14.00">value = [22, 7]</text>
</g>
<!-- 10&#45;&gt;11 -->
<g id="edge11" class="edge">
<title>10&#45;&gt;11</title>
<path fill="none" stroke="black" d="M559.15,-283.51C568.48,-287.16 578.24,-290.99 587.75,-294.71"/>
<polygon fill="black" stroke="black" points="586.33,-297.91 596.92,-298.3 588.88,-291.39 586.33,-297.91"/>
</g>
<!-- 12 -->
<g id="node13" class="node">
<title>12</title>
<polygon fill="#43a2e6" stroke="black" points="700.25,-274 598.75,-274 598.75,-221 700.25,-221 700.25,-274"/>
<text xml:space="preserve" text-anchor="middle" x="649.5" y="-256.7" font-family="Helvetica,sans-Serif" font-size="14.00">gini = 0.091</text>
<text xml:space="preserve" text-anchor="middle" x="649.5" y="-241.7" font-family="Helvetica,sans-Serif" font-size="14.00">samples = 21</text>
<text xml:space="preserve" text-anchor="middle" x="649.5" y="-226.7" font-family="Helvetica,sans-Serif" font-size="14.00">value = [1, 20]</text>
</g>
<!-- 10&#45;&gt;12 -->
<g id="edge12" class="edge">
<title>10&#45;&gt;12</title>
<path fill="none" stroke="black" d="M559.15,-256.87C568.28,-255.91 577.82,-254.91 587.13,-253.94"/>
<polygon fill="black" stroke="black" points="587.24,-257.45 596.82,-252.92 586.51,-250.48 587.24,-257.45"/>
</g>
<!-- 14 -->
<g id="node15" class="node">
<title>14</title>
<polygon fill="#399de5" stroke="black" points="700.25,-203 598.75,-203 598.75,-150 700.25,-150 700.25,-203"/>
<text xml:space="preserve" text-anchor="middle" x="649.5" y="-185.7" font-family="Helvetica,sans-Serif" font-size="14.00">gini = 0.0</text>
<text xml:space="preserve" text-anchor="middle" x="649.5" y="-170.7" font-family="Helvetica,sans-Serif" font-size="14.00">samples = 15</text>
<text xml:space="preserve" text-anchor="middle" x="649.5" y="-155.7" font-family="Helvetica,sans-Serif" font-size="14.00">value = [0, 15]</text>
</g>
<!-- 13&#45;&gt;14 -->
<g id="edge14" class="edge">
<title>13&#45;&gt;14</title>
<path fill="none" stroke="black" d="M559.15,-176.5C568.18,-176.5 577.61,-176.5 586.83,-176.5"/>
<polygon fill="black" stroke="black" points="586.81,-180 596.81,-176.5 586.81,-173 586.81,-180"/>
</g>
<!-- 15 -->
<g id="node16" class="node">
<title>15</title>
<polygon fill="#72b9ec" stroke="black" points="704,-132 595,-132 595,-79 704,-79 704,-132"/>
<text xml:space="preserve" text-anchor="middle" x="649.5" y="-114.7" font-family="Helvetica,sans-Serif" font-size="14.00">gini = 0.346</text>
<text xml:space="preserve" text-anchor="middle" x="649.5" y="-99.7" font-family="Helvetica,sans-Serif" font-size="14.00">samples = 63</text>
<text xml:space="preserve" text-anchor="middle" x="649.5" y="-84.7" font-family="Helvetica,sans-Serif" font-size="14.00">value = [14, 49]</text>
</g>
<!-- 13&#45;&gt;15 -->
<g id="edge15" class="edge">
<title>13&#45;&gt;15</title>
<path fill="none" stroke="black" d="M559.15,-149.86C567.38,-145.78 575.94,-141.52 584.37,-137.34"/>
<polygon fill="black" stroke="black" points="585.79,-140.54 593.19,-132.96 582.68,-134.27 585.79,-140.54"/>
</g>
<!-- 17 -->
<g id="node18" class="node">
<title>17</title>
<polygon fill="#e58139" stroke="black" points="555.25,-124 453.75,-124 453.75,-71 555.25,-71 555.25,-124"/>
<text xml:space="preserve" text-anchor="middle" x="504.5" y="-106.7" font-family="Helvetica,sans-Serif" font-size="14.00">gini = 0.0</text>
<text xml:space="preserve" text-anchor="middle" x="504.5" y="-91.7" font-family="Helvetica,sans-Serif" font-size="14.00">samples = 13</text>
<text xml:space="preserve" text-anchor="middle" x="504.5" y="-76.7" font-family="Helvetica,sans-Serif" font-size="14.00">value = [13, 0]</text>
</g>
<!-- 16&#45;&gt;17 -->
<g id="edge17" class="edge">
<title>16&#45;&gt;17</title>
<path fill="none" stroke="black" d="M410.51,-97.5C420.69,-97.5 431.5,-97.5 442.02,-97.5"/>
<polygon fill="black" stroke="black" points="441.76,-101 451.76,-97.5 441.76,-94 441.76,-101"/>
</g>
<!-- 18 -->
<g id="node19" class="node">
<title>18</title>
<polygon fill="#88c4ef" stroke="black" points="551.5,-53 457.5,-53 457.5,0 551.5,0 551.5,-53"/>
<text xml:space="preserve" text-anchor="middle" x="504.5" y="-35.7" font-family="Helvetica,sans-Serif" font-size="14.00">gini = 0.408</text>
<text xml:space="preserve" text-anchor="middle" x="504.5" y="-20.7" font-family="Helvetica,sans-Serif" font-size="14.00">samples = 7</text>
<text xml:space="preserve" text-anchor="middle" x="504.5" y="-5.7" font-family="Helvetica,sans-Serif" font-size="14.00">value = [2, 5]</text>
</g>
<!-- 16&#45;&gt;18 -->
<g id="edge18" class="edge">
<title>16&#45;&gt;18</title>
<path fill="none" stroke="black" d="M410.51,-72.67C422.34,-66.79 435.04,-60.49 447.13,-54.49"/>
<polygon fill="black" stroke="black" points="448.35,-57.79 455.75,-50.21 445.24,-51.52 448.35,-57.79"/>
</g>
</g>
</svg>
